<mxfile host="app.diagrams.net" modified="2024-03-19T04:48:40.230Z" agent="Mozilla/5.0 (Windows NT 10.0; Win64; x64) AppleWebKit/537.36 (KHTML, like Gecko) Chrome/122.0.0.0 Safari/537.36" version="24.0.7" etag="x8KAR7yX__t4d5XTd3be" type="github">
  <diagram name="Page-1" id="PpiKkiDvaP0agM-0ErOj">
    <mxGraphModel>
      <root>
        <mxCell id="0" />
        <mxCell id="1" parent="0" />
      </root>
    </mxGraphModel>
  </diagram>
</mxfile>
